<?xml version="1.0" encoding="UTF-8"?>
<svg id="Blæksprutte" xmlns="http://www.w3.org/2000/svg" viewBox="0 0 288.6 298.2">
  <defs>
    <style>
      .cls-1 {
        fill: #c78fbf;
      }

      .cls-2 {
        fill: #b05099;
      }

      .cls-3 {
        fill: #be4f97;
      }

      .cls-4 {
        fill: #fff;
      }

      .cls-5 {
        fill: #1d1d1b;
      }
    </style>
  </defs>
  <path class="cls-2" d="M277.45,199.17c1.93-5.01-.59-11.92-7.58-11.92-4.93,0-7.63,3.45-8.12,7.24-1.74,1.57-2.77,3.76-3.1,6.07-1.4.61-2.77,1.53-4.05,2.84-2.81,2.88-6.53,4.92-10.53,6.05-1.8-4.25-5.9-6.63-10.21-7.01.62-2.09.91-4.28.81-6.54-.02-.51-.07-1.02-.12-1.53.99-.87,1.89-1.89,2.79-3.07,2.82-3.67,5.45-7.47,7.91-11.38,1.8-2.86,2.09-6.5,1.16-9.78,1.76-2.19,2.48-5.14,2.16-7.96,4.28-.74,7.15-3.46,8.59-6.84.11,0,.22.02.33.02,2.01,0,3.76-.39,5.27-1.07,1.02.35,2.17.56,3.45.56,12.58,0,12.88-19.11.83-19.96-2-2.68-5.17-4.53-9.54-4.53-5.63,0-9.29,3.07-10.98,7.05-.11,0-.22-.02-.33-.02-9.99,0-13.78,9.64-11.36,16.95-3.26,1.46-5.06,4.62-5.41,7.96-2.27,1-4.28,2.68-5.74,5.01-1.4,2.23-2.86,4.41-4.37,6.56-2.5-.94-5.23-1.46-8.12-1.46-.12,0-.25,0-.37.01-3.55-2.32-7.8-3.68-12.47-3.68-2.93,0-5.82.62-8.53,1.72-.48-.17-.96-.33-1.45-.46,9.81-5.59,18.6-11.28,24.99-21.18,5.1-7.89,3.66-18.98-1.84-26.1-.3-.39-.63-.77-.97-1.15,4.27-9.98,6.39-21.11,5.87-31.25-.91-17.54-11.12-34.49-23.63-46.41-12.38-11.79-27.45-19.03-44.44-20.88-18.14-1.97-37.2,4.45-50.2,17.31-6.66,6.58-12.38,15.22-16.66,23.58-5.73,11.2-9.2,23.87-5.06,36.26,1.57,4.69,4.53,8.92,8.33,12.04-.39.96-.72,1.95-.98,2.96-.25.94-.46,1.9-.65,2.87-4.23,4.06-6.9,9.58-6.61,16.09.58,12.99,10.32,23.17,23.5,23.5.39,0,.76-.02,1.15-.02-.67,1.72-1.3,3.46-1.92,5.19-5.82.32-9.39,4.02-10.69,8.49-1.29.43-2.54.97-3.75,1.61-1.99-1.98-4.8-3.26-8.45-3.26-1.49,0-2.83.22-4.04.6-.24-6.5-3.11-12.16-6.49-17.68-3.34-5.44-6.48-10.29-11.77-14.04-7.32-5.19-18.02-11.19-26.69-8.85-1.89-.41-3.85-.43-5.71.18-2.91.94-5.43,2.65-7.13,5.22-1.49,1.02-2.77,2.31-3.7,3.9-.91,1.43-1.41,2.98-1.48,4.65-.37,1.66-.3,3.32.22,4.98.98,3.02,2.85,5.94,5.74,7.47,2.91,1.54,6.41,2.29,9.63,1.26,1.82-.58,3.58-1.39,5.14-2.49.7-.04,1.4-.13,2.09-.28.89.36,1.78.82,2.81,1.43.42.24.83.5,1.24.75.76,1.43,1.48,2.89,2.2,4.34,2.07,4.15,4.37,8.35,8,11.35.3.25.62.48.93.71.46,6.6,5.47,10.13,10.88,10.6.98,1.45,2.13,2.76,3.78,3.56,1.18.57,2.42.86,3.69.99,1.17,2.34,3.06,4.29,5.67,5.38-.12.3-.24.6-.35.9-2.64.99-5.1,2.63-7.09,4.65-1.28,1.3-2.96,3.85-3.82,4.75.16-.25-1.12.48-1.53.58-.92.22-2.71.29-4.41.35-1.08.03-2.15.05-3.23.04-.16,0-.33,0-.49,0-2.64-1.68-5.92-2.21-8.99-1.63-1.15-3.39-2.57-6.68-4.22-9.85-1.7-3.25-6.51-4.49-9.58-2.51-3.31,2.14-4.33,6.1-2.51,9.58,1.71,3.27,2.65,5.66,3.73,9.43.43,1.49,1.39,2.8,2.64,3.74-.32,2.61.19,5.39,1.39,8.13,3.62,8.21,15.79,13.95,24.44,13.6,7.09-.29,14.59-3.73,20.83-8.12,1.35,2.03,3,3.84,4.88,5.37-.03.11-.07.21-.09.32-.8,3.5-.15,6.37,1.26,9.63,2.3,5.33,4.2,11,9.34,14.28,2.35,1.5,5.24,1.95,8.03,1.54.02.15.02.3.05.46.45,2.48,2.3,4.65,4.39,5.95.74.46,1.55.8,2.36,1.11.45.77.98,1.48,1.65,2.11,1.97,1.85,4.49,2.44,7.11,2.5,3.66.09,7.17-3.29,7-7-.14-3.08-2.01-5.63-4.75-6.59-.74-1.03-1.71-1.92-2.79-2.58-.69-.42-1.43-.75-2.19-1.05-.69-1.12-1.78-2.01-3.01-2.59,1.62-4.34.88-8.95-1.88-12.42-.55-1.04-.98-2.2-1.46-3.24,0-.01-.01-.03-.02-.04,6.81-3.55,12.04-10.27,12.8-17.99,10.3-2.23,19.1-11.62,18.89-22.49,4.72,2.32,9.37,3.05,13.74,2.46,2.47,10.53,11.35,18.7,22.83,18.7.39,0,.77-.01,1.16-.04,1.35,4.11,3.71,7.76,6.81,10.59-.22.9-.34,1.84-.3,2.79.04.99,0,1.97-.06,2.95-.02.1-.03.21-.06.31-.61,2.85-.51,5.77.65,8.42-.44.16-.88.35-1.3.59-1.69.95-3.39,1.89-5.08,2.84-1.56.87-2.88,2.47-3.58,4.17-1.35-.48-2.86-.6-4.36-.31-3.64.69-7.28.95-10.98.96-9.01,0-9.02,14,0,14,4.94,0,9.85-.54,14.71-1.46,1.72-.33,3.09-1.46,3.98-2.93,2.59,1.65,5.9,1.89,8.82.25,1.69-.95,3.39-1.89,5.08-2.84,1.84-1.03,3.35-3.06,3.91-5.08.24-.87.32-1.85.26-2.84,2.2.02,4.4-.45,6.28-1.65,2.65-1.71,5.07-4.29,5.74-7.47.56-2.65.95-5.39,1.01-8.11,3.29-.02,6.54-.81,9.53-2.2,1.63,2.78,4.21,5.02,7.3,5.56,16.54,2.88,34.44-.82,46.47-13.14,3.64-3.72,4.24-8.09,3.03-11.9,2.36-2.64,3.08-6.58,2.15-10.01Z"/>
  <path class="cls-3" d="M281.92,150.99c-2.58-15.75-19.16-25.82-34.21-20.01-7.36,2.84-12.37,8.37-15.31,15.6-3.94,9.65-5.67,18.62-15.15,24.55-.28.18-.51.38-.72.59-3.7,0-7.05-3.11-10.2-4.72-2.72-1.39-5.57-2.28-8.63-2.45-.44-.02-.88-.03-1.31-.03,6.6-4.2,14.78-7.09,19.89-12.28,8.78-8.9,8.1-22.83-.82-30.89,4.87-10.04,2.86-22.06,1.47-32.78-1.55-12.02-4.03-24.29-10.69-34.63-6.71-10.4-17.34-20.63-27.62-27.52-10.8-7.25-25.68-8.26-38.36-7.62-23.82,1.2-43.03,16.59-55.49,36.09-6.85,10.72-13.17,23.7-12.5,36.72.27,5.3,1.65,10.45,3.98,15.22,1.14,2.34,2.55,4.5,4.15,6.55.39.5,2.64,2.6,2.61,3.04-.07.82-2.61,2.22-3.23,2.78-8.86,7.99-10.52,21.79-3.62,31.52,3.19,4.5,7.82,7.87,13.13,9.41,3.9,1.13,8.03.96,11.98,1.78.14.03.29.07.44.1-.42,0-.84,0-1.27.03-7.32.44-12.52,5.79-19.38,7.29-4.29.94-5.1-.8-6.67-4.06-.72-1.5-1.32-3.05-1.94-4.59-1.23-3.05-2.38-6.12-3.65-9.15-2.53-5.99-5.52-11.99-10.3-16.54-5.02-4.78-11.48-7.3-18.26-8.36-6.64-1.03-15.05-2.3-21.38.53-12.71,5.68-11.45,24.94-9.61,36.05.46,2.78,4.08,3.13,5.85,1.54,5.3-4.74,13.43-11.47,20.32-5.51,4.86,4.2,6.39,11.07,8.7,16.78,2.09,5.14,4.82,10.25,9.61,13.35,3.55,2.29,7.62,3.17,11.76,3.5-5.33,5.99-11.69,11.37-20.09,7.45-9.13-4.27-11.33-14.81-10.73-23.96.23-3.61-4.8-4.56-6.52-1.77-11.27,18.24-7.57,42.37,9.4,55.76,7.18,5.67,16.52,9.58,25.8,8.22,4.23-.62,8.23-2.42,11.14-5.62,1.51-1.66,2.58-3.59,3.55-5.58.31,4.44,1.45,8.92,2.62,13.02,6.52,22.86,29.16,34.14,51.93,31.84,3.49-.35,4.71-4.46,1.77-6.52-7.73-5.42-15.83-11.9-18.79-21.26-3.04-9.62.86-17.33,8.61-23.04,5.73-4.22,12.16-7.68,16.6-13.4,1.57-2.02,2.8-4.18,3.72-6.44,0,0,0,0,0,0,2.54.46,4.98.53,7.49.28,3.94,8.79,13.56,14.09,21.11,19.35,4.33,3.02,10.97,6.45,10.64,12.58-.3,5.57-5.02,9.6-9.87,11.5-10.32,4.06-21.76,2.57-31.97,7.31-2.45,1.14-2.11,4.81,0,6.04,10.33,6.04,22.35,6.4,33.85,4.05,10.31-2.1,21.32-6.33,28.46-14.38,4.55-5.13,6.81-11.4,7.1-17.86,4.76,6.48,13.21,9.41,21.26,10.22,10.84,1.09,22.21-1.97,30.92-8.54,17.55-13.23,20.68-38.98,7.09-56.14-2.04-2.57-5.83-.24-5.97,2.47-.46,8.4-2.7,18.1-9.96,23.29-5.85,4.18-13.66,4.16-18.44-.75,9.41-6.52,10.01-18.53,12.29-28.97,1.29-5.89,3.49-13.04,9.71-15.33,6.68-2.45,14.33.49,21.29-1.41,1.97-.54,2.75-2.44,2.44-4.31ZM255.78,150.1c-5.28,1.9-8.97,6.29-11.23,11.3-4.52,10.06-2.43,26.62-12.1,33.65-2.58-5.19-4.85-10.41-10.59-13.02-6.93-3.16-14.83-1.34-21.82.66-4.32,1.24-2.49,7.99,1.86,6.75,4.59-1.31,9.61-2.79,14.42-1.87,5.11.98,7.32,4.98,9.36,9.32,3.52,7.47,7.84,13.64,16.63,14.73,15.31,1.9,24.21-9.98,27.67-23.05,4.99,12.81,1.13,28.54-9.84,37.31-6.34,5.07-14.46,7.81-22.54,7.97-7.69.15-19.2-1.87-22.16-10.19-.82-2.3-3.2-2.8-4.95-2.09-.35-1.56-.8-3.11-1.36-4.63-4.28-11.62-13.46-20.21-22.55-28.19-3.37-2.96-8.34,1.97-4.95,4.95,13.26,11.66,33.55,33.19,16.66,50.66-5.98,6.18-14.62,9.35-22.83,11.22-7.1,1.62-14.54,2.11-21.52.41,7.88-1.54,16.18-1.46,23.65-4.75,7.63-3.36,14.01-10.89,13.06-19.66-1.05-9.64-11.71-14.81-18.77-19.74-4.66-3.25-9.98-6.55-12.89-11.59-2.41-4.16-2.76-10.42,1.77-13.3,3.79-2.41.28-8.47-3.53-6.04-4.95,3.15-7.21,8.59-6.93,14.12-1.32.08-2.67,0-3.95-.23-.02,0-.03,0-.05,0,.47-3.29.38-6.69-.22-10.08-.79-4.43-7.54-2.55-6.75,1.86,3.98,22.26-22.56,24.69-29.9,41.28-6.46,14.6,2.4,27.84,13.19,37.44-14.74-1.26-28.9-8.73-34.19-23.48-1.81-5.07-3.3-10.82-3.45-16.21-.15-5.9,2.71-10.53,6.66-14.65,6.97-7.28,16.46-11.68,26.49-12.48,4.46-.36,4.5-7.36,0-7-11.62.93-22.65,5.65-30.91,13.99-2.53,2.55-4.91,5.45-6.61,8.67-1.39-.41-3.03-.14-4.12,1.29-4.86,6.37-5.41,15.37-14.95,16.37-7.73.81-15.69-3.2-21.28-8.25-9.42-8.51-13.16-20.8-11.03-32.55,1.19,3.78,3.08,7.32,5.85,10.33,5.73,6.21,14.9,9.23,22.97,6.19,7.63-2.87,12.1-9.9,17.59-15.47,8.29-8.4,18.78-7.75,29.67-6.14,4.41.65,6.31-6.09,1.86-6.75-8-1.18-16.49-2.42-24.38.1-4.33,1.38-7.79,3.87-10.92,6.81-8.55.03-15.57-.94-19.84-9.28-3.25-6.34-4.49-13.42-8.84-19.22-3.63-4.83-8.78-8.06-14.99-7.64-4.86.33-9.12,2.69-12.95,5.6-.43-5.2-.22-10.59,1.38-15.41,2.49-7.47,8.46-7.69,15.42-7.29,6.46.37,13.37,1.21,18.85,4.98,4.68,3.22,7.66,8.18,10.05,13.21,2.33,4.92,4.07,10.1,6.2,15.11,1.75,4.12,3.91,9.01,8.65,10.36,9.17,2.6,25.36-14.79,32.25-4.58.06.1.14.17.21.25.63,2.79,4.75,4.36,6.36,1.17,4.36-8.64-3.28-16.44-11.52-18.16-5.45-1.14-11.25-.58-16.17-3.64-4.9-3.05-8.14-8.48-8.19-14.29-.05-5.78,3.01-10.95,7.56-14.31,3.41-2.52,5.79-5.77,2.99-9.84-3.1-4.51-6.61-7.88-8.45-13.25-2.18-6.38-2.02-13.1-.29-19.57,5.51-20.6,21.73-41.56,41.43-50.22,11.66-5.12,24.53-4.89,36.93-3.25,13.55,1.8,22.33,10.16,31.66,19.42,10.08,10,15.61,21.14,18.19,35.06,1.23,6.67,2.05,13.49,2.53,20.25.48,6.65.32,13.21-3.38,18.99-1.06,1.65-.28,3.79,1.26,4.79,5.92,3.88,8.33,11.93,4.95,18.28-2.43,4.56-7.14,7.41-11.49,9.88-8.86,5.03-18.25,9.23-22.3,19.25-1.35,3.35,3.56,5.76,5.85,3.41,5.03-5.17,11.79-5.68,17.98-2.3,5.16,2.82,9.22,5.65,15.31,4.57,1.32-.23,2.07-1,2.37-1.94,5.32-3.57,9.59-8.29,12.27-14.18,2.99-6.57,3.82-14.56,8.9-20.01,10.13-10.87,26.52-5.71,31.16,6.88-6.12.55-12.42-1.19-18.41.97Z"/>
  <path class="cls-5" d="M165.23,150.87c-.31-1.8-1.63-3.35-3.23-4.16-1.72-.87-3.69-1-5.44-.17-.49.23-.61.93-.36,1.37.29.5.88.59,1.37.36.05-.02.06-.03.07-.03.01,0,0,0,.02,0,.08-.03.17-.06.25-.09.17-.05.34-.1.52-.13.05,0,.13-.02.15-.02.07,0,.13-.01.2-.02.18,0,.35,0,.53,0,.06,0,.12,0,.18.02,0,0,.13.02.17.02.18.03.35.07.52.12.03,0,.05.02.08.03-.66,2.05-2.55,3.33-4.36,4.3-2.39,1.27-4.93,2.3-7.46,3.25-.5.19-.85.67-.7,1.23.13.48.72.89,1.23.7,2.8-1.06,5.65-2.18,8.26-3.63,2.04-1.13,3.9-2.67,4.78-4.86.2.18.4.37.58.58.02.03.04.06.06.09.05.07.1.15.15.22.09.15.17.31.25.47,0,.02.02.04.03.06,0,0,0,0,0,.03.03.08.06.17.09.25.06.19.1.38.13.57.09.53.75.83,1.23.7.56-.15.79-.7.7-1.23Z"/>
  <path class="cls-5" d="M191.2,124.32c-4.02-1.13-7.64,1.42-10.07,4.36-1.51,1.83-2.99,3.74-5.52,3.99-2.69.27-5.58-.38-8.17-1.06-1.25-.33-1.78,1.6-.53,1.93,2.74.73,6.19,1.56,9.19,1.08-.05.23-.04.48.06.7,1.57,3.69,5.78,5.29,9.48,3.97,2.11-.75,4.08-2,5.92-3.25,1.58-1.07,3.29-2.27,3.97-4.14,1.16-3.16-1.24-6.71-4.33-7.58ZM181.78,130.97c.19.29.5.44.85.44h0s.08.06.12.09c.04.03.09.08.1.09.11.1.2.21.29.31,0,0,0,0,.01.02.04.06.08.12.12.18.08.13.14.26.21.39,0,0,0,0,0,0,0,.01,0,.02.01.05.02.06.04.11.05.17.04.12.06.24.08.36,0,.03.01.09.02.11,0,.07,0,.15,0,.22,0,.07,0,.15,0,.22,0,.03-.01.09-.02.12-.02.1-.04.2-.07.3-.02.07-.05.14-.07.21,0,.02,0,.02,0,.03,0,0,0,0,0,.01-.07.13-.13.26-.21.38-.03.05-.07.11-.11.16,0,0,0,0-.02.02-.09.11-.19.21-.3.31-.05.05-.11.09-.16.14,0,0,0,0,0,0-.01,0-.01,0-.04.02-.11.07-.22.14-.33.2-.05.02-.09.05-.14.07-.01,0-.07.02-.12.04-1.43-.32-2.71-.99-4.07-1.53,1.59-.66,2.72-1.86,3.79-3.13Z"/>
  <path class="cls-5" d="M200.46,115.25c-.13-.12-.27-.24-.4-.35-.03-.07-.07-.14-.13-.21-2.71-3.49-7.36-5.08-11.67-4.29-2.53.47-4.48,1.98-6.58,3.35-2.52,1.64-5.23,2.94-8.09,3.88-.96,0-1.93-.11-2.93-.4-1.24-.36-1.77,1.57-.53,1.93,2.65.78,5.47.68,8.03-.39,2.52-1.06,4.56-2.93,6.98-4.17,4.5-2.31,10.25-1.37,13.9,2.07.94.88,2.35-.53,1.41-1.41Z"/>
  <path class="cls-5" d="M125.78,117.52c-3.16,1.1-5.81-1.57-8.18-3.24-2.36-1.65-5.02-2.99-7.83-3.66-5.11-1.22-10.93-.01-14.35,4.2-.8.98.58,2.39,1.39,1.44.04-.02.1-.02.14-.05.49-.32.99-.65,1.48-.97.27-.17.53-.35.77-.55.05-.04.09-.09.14-.13,2.42-.75,4.94-1.55,7.51-1.28,2.06.22,3.99,1.11,5.8,2.08,3.52,1.87,6.89,4.13,10.97,4.43.12,0,.22-.02.32-.04.78.05,1.58-.02,2.37-.3,1.21-.42.69-2.35-.53-1.93Z"/>
  <path class="cls-5" d="M131.08,132.72s0,0,0-.01c-.02-.02-.04-.05-.06-.07-.08-.4-.39-.72-.93-.66-2.59.28-5.36.62-7.87-.31-2.45-.9-3.55-3.2-5.6-4.62-3.58-2.49-9.13-5.09-13.33-2.58-1.73,1.03-2.92,2.92-3.02,4.95-.12,2.25,1.23,4.21,2.93,5.55,1.99,1.57,4.43,2.66,6.71,3.72,2.21,1.03,4.37,2,6.78,1.03,1.09-.44,2.25-1.04,3.16-1.8.89-.75,1.19-1.75,1.86-2.65.13-.17.28-.29.44-.38,1.88.38,3.94.21,5.88-.06.6-.05,1.2-.13,1.81-.27.15-.03.26-.09.36-.16.04,0,.09-.02.13-.03.02,0,.05-.01.07-.02.23-.09.3-.11.49-.28.08-.07.15-.16.19-.25.03-.08.07-.16.1-.24,0,0,0-.01,0-.02.02-.09.04-.19.04-.29,0-.19-.05-.38-.15-.54ZM117.46,135.23c-.32.17-.71.28-1.05.29-1.04.04-2.23-.38-3.05-1.01-.98-.74-1.59-2.02-1.03-3.2.25-.52.62-.94.9-1.42.14.1.3.2.43.31,1.09.92,1.75,1.92,3.11,2.52.36.16.71.32,1.07.48-.02.73-.1,1.43-.37,2.03Z"/>
  <path class="cls-4" d="M183.58,132.68c-.16-.41-.36-.81-.62-1.16-.18-.24-.37-.49-.63-.64-.47-.28-1.01-.14-1.39.21-.06.06-.11.13-.16.2-.44.31-.86.65-1.28.99-.42.34-.89.66-1.26,1.06-.14.15-.22.34-.26.54-.13.29-.15.62.03.9.1.16.24.27.4.35.12.14.28.25.47.32.84.31,1.69.49,2.57.6.23.03.45.06.67.03.41-.06.71-.3.93-.64.24-.37.43-.8.56-1.22.14-.5.15-1.04-.04-1.53Z"/>
  <path class="cls-4" d="M117.99,132.9c-.08-.12-.18-.22-.32-.28-.4-.18-.8-.37-1.19-.57-.17-.09-.34-.18-.5-.28-.03-.02-.19-.14-.19-.13-.05-.04-.1-.09-.15-.13-.28-.28-.53-.59-.78-.89-.03-.03-.24-.31-.1-.12-.05-.07-.1-.13-.15-.2-.13-.18-.24-.37-.35-.56-.37-.69-1.34-.61-1.73,0-.53.82-1.04,1.73-.99,2.74.03.54.14,1.14.42,1.62.27.46.72.76,1.19.99.9.45,1.89.77,2.9.78.59,0,1.26-.04,1.68-.5.41-.45.54-1.16.56-1.75,0-.27-.12-.52-.31-.7Z"/>
  <path class="cls-1" d="M258.94,147.26c-3.48-2.14-8.39-3.48-11.74-.31-1.53,1.45-2.33,3.64-2.8,5.65-.51,2.18-.64,4.43-.75,6.66-3.38.39-6.08,3.02-6.94,6.3-.97,3.71.29,7.5,2.49,10.52-3.41.56-6.41,2.73-7.63,6-1.3,3.48.23,7.09,2.16,10,.71,1.07,2.44.07,1.73-1.01-1.6-2.42-3.03-5.31-2.03-8.24.94-2.76,3.57-4.38,6.33-4.83.68-.11.83-.71.64-1.22.68-.08,1.26-.74.75-1.42-1.89-2.48-3.25-5.6-2.61-8.77.58-2.87,2.82-5.34,5.88-5.39.73-.01,1.03-.65.93-1.2.17-.16.29-.38.31-.67.1-1.92.19-3.85.58-5.74.35-1.69.9-3.61,2.09-4.92,2.6-2.89,6.83-1.4,9.62.31,1.1.68,2.11-1.05,1.01-1.73Z"/>
  <path class="cls-1" d="M267.8,214.22c-4.18-1.07-8.79.07-11.87,3.13-1.45,1.44-2.53,3.25-3.15,5.2-.43,1.36-.51,2.7-.5,4.07-3.04-3.54-7.58-5.75-12.33-5.19-2.67.32-5.22,1.39-7.23,3.2-1.81,1.63-2.92,3.78-3.85,6-.16-4.22-2.07-8.64-5.55-11.09-3.5-2.47-8.52-2.06-11.72.69-.98.84.44,2.25,1.41,1.41,2.59-2.22,6.76-2.35,9.46-.26,3.21,2.48,4.66,6.94,4.37,10.86-.06.76.63,1.06,1.21.92.21.77,1.58.97,1.95-.02.94-2.45,1.93-5.01,3.86-6.87,1.72-1.66,4.06-2.66,6.43-2.89,4.79-.47,9.27,2.25,11.74,6.26.14.22.33.34.52.41.5.68,1.83.51,1.8-.55-.05-2.03-.32-4.01.22-6,.47-1.71,1.36-3.3,2.6-4.58,2.58-2.67,6.51-3.69,10.08-2.77,1.25.32,1.78-1.61.53-1.93Z"/>
  <path class="cls-1" d="M198.8,235.33c-.31-2.2-.9-4.77-2.33-6.54-1.38-1.71-3.57-2.16-5.63-2.46-.06,0-.12,0-.17,0,2.32-3.88,2.24-9.27-.71-12.8-1.54-1.85-3.94-2.66-6.3-2.66-2.21,0-4.32.7-6.36,1.51.29-3.26.13-7.07-2.97-8.96-1.55-.95-3.6-1.16-5.38-1.18-1.95-.02-3.9.31-5.73.97-1.2.43-.68,2.36.53,1.93,1.53-.55,3.11-.86,4.73-.89,1.5-.03,3.29.06,4.64.79,2.83,1.53,2.39,5.47,2.1,8.12-.02.2.04.38.15.54-.02.13-.02.26.02.41.12.47.73.9,1.23.7,3.51-1.46,8.71-3.52,11.77-.03,2.65,3.02,2.39,7.86.24,11.05-.51.76.22,1.49.95,1.46,0,.43.28.93.73.99,1.51.22,3.32.42,4.43,1.58,1.25,1.3,1.71,3.54,2.01,5.25.3,1.69.41,3.5-1.15,4.59-1.52,1.06-3.48.99-5.25.97-1.29-.02-1.29,1.98,0,2,2.24.03,4.64-.03,6.51-1.43,1.95-1.45,2.25-3.62,1.93-5.9Z"/>
  <path class="cls-1" d="M134.83,201.21c-4.45-.4-9.66.39-13.3,3.17-3.54,2.71-4.19,7.14-4.62,11.29-.02.22.03.39.12.54-3.15.05-6.28,1.48-8.26,3.94-1.99,2.48-2.78,5.73-2.22,8.84-1.91.95-3.86,2.2-5.23,3.82-1.51,1.78-1.37,4.61-1.31,6.82.06,2.3.54,4.59,2.01,6.42,1.28,1.59,3.21,2.67,5.29,2.49,1.27-.11,1.28-2.11,0-2-1.62.14-3.02-.72-3.95-2.02-1.15-1.6-1.37-3.63-1.35-5.54,0-.97.07-1.94.14-2.91.08-1.04.4-1.72,1.15-2.44,1.41-1.33,3.07-2.37,4.82-3.19.39-.18.52-.5.5-.82.03-.14.04-.3,0-.47-.66-2.65-.06-5.62,1.69-7.74,1.79-2.16,4.53-3.33,7.32-3.22.99.04,1.21-1.13.68-1.69.31-.14.56-.41.61-.83.37-3.57.88-7.65,4.06-9.88,3.33-2.35,7.89-2.94,11.86-2.58,1.28.12,1.27-1.88,0-2Z"/>
  <path class="cls-1" d="M71.56,221.04c-3.09-.43-6.32.23-8.85,2.11-1.82,1.34-3.23,3.16-4.07,5.24-.29-1.43-.66-2.86-1.26-4.17-.81-1.78-2.26-2.74-4.17-3.04-2.96-.47-5.96.22-8.43,1.83.08-1.21.12-2.44.05-3.64-.09-1.45-.5-2.89-1.62-3.89-2.43-2.17-5.75-1.54-8.61-.76-1.24.34-.71,2.27.53,1.93,2.09-.57,4.96-1.39,6.76.33.8.77.93,1.87.96,2.92.03,1.43-.04,2.87-.15,4.3-.02.22.07.41.2.57-.13.8.93,1.59,1.69.88,2.14-1.99,5.19-2.98,8.09-2.55.71.1,1.49.27,2.04.75.49.42.8,1.03,1.03,1.62.64,1.64.99,3.44,1.27,5.18.09.54.75.83,1.23.7.05-.01.08-.04.12-.06.51.43,1.41.39,1.59-.44,1.09-5.03,5.89-8.59,11.06-7.87.53.07,1.07-.13,1.23-.7.13-.47-.16-1.15-.7-1.23Z"/>
  <path class="cls-2" d="M44.76,145.45c-2.34-2.97-6.98-4.03-10.03-1.5-1.59,1.31-2.43,3.34-3.08,5.24-.41,1.22,1.52,1.75,1.93.53.55-1.61,1.27-3.44,2.7-4.46,1.52-1.09,3.62-.9,5.19-.02,1.49.84,2.59,2.28,2.83,4,.24,1.75-.38,3.56-1.64,4.79-.92.9.49,2.32,1.41,1.41,2.68-2.63,3.01-7.03.68-9.99Z"/>
  <path class="cls-1" d="M60.15,166.01c-.47-2.12-1.8-4.44-3.88-5.32-1.21-.52-2.61-.36-3.9-.35-1.29,0-2.59.01-3.88.02,1.41-2.58,2.12-5.62.78-8.39-.6-1.25-1.64-2.33-2.92-2.88-1.46-.63-3.14-.54-4.68-.3-1.24.19-2.46.65-3.45,1.43-1.3-2.97-4.15-5.01-7.36-5.36-2.99-.32-7.15,1-7.89,4.31-.28,1.25,1.65,1.79,1.93.53.55-2.47,4.04-3.15,6.15-2.82,2.5.4,4.5,2.11,5.48,4.41.12.27.38.41.67.46.02.21.09.41.26.58.36.36,1.06.41,1.41,0,.89-1.05,2.21-1.5,3.55-1.65,1.46-.17,3.04-.16,4.16.92,2.39,2.31,1.35,5.87-.16,8.35-.32.53-.08,1.04.32,1.3-.05.53.26,1.11.95,1.1,1.25,0,2.5-.01,3.74-.02,1.12,0,2.32-.13,3.43.02,1.89.24,2.98,2.53,3.35,4.18.85,3.82-1.43,7.47-4.52,9.55-1.06.71-.06,2.45,1.01,1.73,3.87-2.6,6.49-7.06,5.44-11.81Z"/>
  <path class="cls-1" d="M166.87,43.69c-.14-.19-.33-.33-.53-.41-.07-.08-.14-.16-.21-.23-1.15-1.06-2.48-1.52-3.94-1.48-1.74-.46-3.59-.47-5.3.19-2.92,1.12-4.76,3.9-4.67,7.03.04,1.46.51,2.86,1.42,4,1.1,1.37,2.81,1.99,4.46,2.43,2.95.79,6.61,1.07,9.07-1.1,3.13-2.75,1.9-7.52-.3-10.43Z"/>
  <path class="cls-1" d="M195.35,65.64c-1-3.69-3.33-6.98-6.43-9.15-2-2.15-4.75-3.28-7.83-2.87-.14.02-.27.05-.41.07-2.26.04-4.52.5-6.36,1.89-1.79,1.36-2.89,3.43-3.25,5.63-.85,5.12,1.74,9.69,5.71,12.77,1.18.92,2.45,1.7,3.75,2.41,1.28,1.01,2.71,1.74,4.3,2.04,2.19.9,4.41,1.48,6.63.19,4.35-2.53,5.09-8.54,3.89-12.98Z"/>
</svg>