<?xml version="1.0" encoding="UTF-8"?>
<svg id="Layer_1" data-name="Layer 1" xmlns="http://www.w3.org/2000/svg" viewBox="0 0 358.45 178.48">
  <defs>
    <style>
      .cls-1 {
        fill: #fff;
      }
    </style>
  </defs>
  <path class="cls-1" d="M102.29,41.61c-9.17,4.3-18.52,8.55-27.96,12.71-.29-12.74-4.08-18.39-14.6-17.08-11.06,1.43-19.61,6.75-23.52,15.69-1.5,3.58-1.45,6.52.05,8.87,1.49,2.35,6.07,4.23,13.74,5.78,12.81,2.6,22.35,5.75,28.39,9.1,6.05,3.35,11.09,8.96,15.62,16.88,4.54,7.91,7.31,16.88,8.68,26.71,2.2,15.41,1.03,28.57-2.58,38.71-3.66,10.15-10.55,13.66-24.54,10.44-10.44-2.4-22.57-8.39-36.71-16.83-13.94-8.49-28.74-18.98-38.85-31.58,7.94-1.11,16.21-2.52,24.75-4.18,8.32,13.82,21.44,22.06,34.6,23.76,6.51.79,10.59-.33,12.63-3.37,2.03-3.04,2.45-6.97,1.23-11.66-1.23-4.78-3.5-8.57-7.14-11.31-3.63-2.75-10.12-5.43-19.54-7.98-17.55-4.76-30.58-10.39-37.87-16.85-7.24-6.5-10.14-15.43-4.68-27.45,5.55-12.15,18.09-22.93,32.89-33.21,14.99-10.23,28.32-17.35,39.53-19.94,19.88-4.65,24.73,6.55,25.9,32.81Z"/>
  <path class="cls-1" d="M133.04,2.1c10.64-1.03,21.29-1.72,31.93-2.06,12.96-.42,22.7,2.84,30.17,9.13,7.38,6.3,15.26,16.23,23.11,29.59,7.8,13.37,13.13,29.98,13.15,50,.1,25.16-9.01,46.31-21.52,63.7-12.75,17.36-25.57,26.41-40.86,26.03-12-.29-23.99-1.02-35.99-2.18-15.97-58.06-15.97-116.13,0-174.19ZM154.03,33.03c-2.71,37.19-2.72,74.37-.06,111.56,3.95.1,7.91.18,11.86.24,10.43.16,18.28-5.58,24.07-16.99,5.74-11.42,9.07-24.8,9.02-40.14-.01-10.81-1.9-20.82-5.31-30.04-3.42-9.22-7.41-15.71-11.86-19.42-4.47-3.71-9.6-5.54-15.63-5.45-4.03.06-8.07.14-12.1.25Z"/>
  <path class="cls-1" d="M234.83,2.68c16.25,1.76,32.51,4.31,48.76,7.67,8.71,1.81,16.69,4.98,24.12,9.03,7.39,4.07,15.4,9.17,23.3,15.2,7.88,6.04,14.82,12.79,19.22,20.48,8.84,15.51,1.22,25.49-14.67,31.04,9.43,2.44,16.7,6.96,20.3,13.41,3.58,6.46,3.54,13.29-.64,20.91-5.69,10.39-17.1,19.85-30.79,29.03-13.88,9.12-27.68,15.79-40.84,18.58-16.25,3.35-32.51,5.91-48.76,7.67,22.96-57.68,22.96-115.35,0-173.03ZM273.41,35.33c4.59,12.16,7.63,24.32,9.11,36.48,7.9.2,15.8.43,23.7.68,8.68.27,13.88-1.55,15.14-5.39,1.26-3.85,1.12-7.53-.27-11.13-1.5-3.9-3.96-7.33-7.09-10.34-3.14-3.01-5.98-5.02-8.39-5.98-2.42-.96-6.61-1.79-12.58-2.43-6.54-.69-13.08-1.32-19.62-1.89ZM283.05,101.46c-1.15,13.38-4.18,26.76-9.09,40.14,7.37-.62,14.74-1.32,22.12-2.09,7.53-.8,13.77-3.12,18.61-6.76,4.8-3.65,8.65-8.37,10.73-14.24,1.73-4.91,1.19-9.05-1.38-12.54-2.58-3.48-7.86-5.19-15.45-5.03-8.52.19-17.03.37-25.54.52Z"/>
</svg>